<svg width="87" height="31" viewBox="0 0 87 31" fill="none" xmlns="http://www.w3.org/2000/svg">
<path d="M28.2642 24C27.5442 24 26.9682 23.784 26.5362 23.352C26.1202 22.92 25.9122 22.344 25.9122 21.624V14.256H22.6482V12.168H25.9122V8.256H28.3842V12.168H31.9122V14.256H28.3842V21.192C28.3842 21.672 28.6082 21.912 29.0562 21.912H31.5282V24H28.2642ZM38.6324 24.216C37.7364 24.216 36.9364 24.016 36.2324 23.616C35.5284 23.216 34.9764 22.648 34.5764 21.912C34.1764 21.176 33.9764 20.296 33.9764 19.272V12.168H36.4484V19.104C36.4484 20.128 36.7044 20.888 37.2164 21.384C37.7284 21.864 38.4404 22.104 39.3524 22.104C40.3604 22.104 41.1684 21.768 41.7764 21.096C42.4004 20.408 42.7124 19.424 42.7124 18.144V12.168H45.1844V24H42.7604V22.224H42.3764C42.1524 22.704 41.7524 23.16 41.1764 23.592C40.6004 24.008 39.7524 24.216 38.6324 24.216ZM48.1186 24V7.2H50.5906V16.776H50.9746L55.6306 12.168H58.9186L52.9426 17.904L59.1106 24H55.8466L50.9746 19.08H50.5906V24H48.1186ZM64.0316 24.336C63.1836 24.336 62.4236 24.192 61.7516 23.904C61.0956 23.616 60.5676 23.192 60.1676 22.632C59.7836 22.072 59.5916 21.392 59.5916 20.592C59.5916 19.776 59.7836 19.104 60.1676 18.576C60.5676 18.032 61.1036 17.624 61.7756 17.352C62.4636 17.08 63.2396 16.944 64.1036 16.944H67.7036V16.176C67.7036 15.488 67.4956 14.936 67.0796 14.52C66.6636 14.104 66.0236 13.896 65.1596 13.896C64.3116 13.896 63.6636 14.096 63.2156 14.496C62.7676 14.896 62.4716 15.416 62.3276 16.056L60.0236 15.312C60.2156 14.672 60.5196 14.096 60.9356 13.584C61.3676 13.056 61.9356 12.632 62.6396 12.312C63.3436 11.992 64.1916 11.832 65.1836 11.832C66.7196 11.832 67.9276 12.224 68.8076 13.008C69.6876 13.792 70.1276 14.904 70.1276 16.344V21.216C70.1276 21.696 70.3516 21.936 70.7996 21.936H71.8076V24H69.9596C69.3996 24 68.9436 23.856 68.5916 23.568C68.2396 23.28 68.0636 22.888 68.0636 22.392V22.32H67.7036C67.5756 22.56 67.3836 22.84 67.1276 23.16C66.8716 23.48 66.4956 23.76 65.9996 24C65.5036 24.224 64.8476 24.336 64.0316 24.336ZM64.3916 22.296C65.3836 22.296 66.1836 22.016 66.7916 21.456C67.3996 20.88 67.7036 20.096 67.7036 19.104V18.864H64.2476C63.5916 18.864 63.0636 19.008 62.6636 19.296C62.2636 19.568 62.0636 19.976 62.0636 20.52C62.0636 21.064 62.2716 21.496 62.6876 21.816C63.1036 22.136 63.6716 22.296 64.3916 22.296ZM74.5544 28.8V26.64H81.1544C81.6024 26.64 81.8264 26.4 81.8264 25.92V22.272H81.4424C81.2984 22.592 81.0744 22.904 80.7704 23.208C80.4824 23.496 80.0904 23.736 79.5944 23.928C79.0984 24.12 78.4744 24.216 77.7224 24.216C76.8264 24.216 76.0264 24.016 75.3224 23.616C74.6184 23.216 74.0664 22.648 73.6664 21.912C73.2664 21.176 73.0664 20.304 73.0664 19.296V12.168H75.5384V19.104C75.5384 20.128 75.7944 20.888 76.3064 21.384C76.8184 21.864 77.5304 22.104 78.4424 22.104C79.4504 22.104 80.2584 21.768 80.8664 21.096C81.4904 20.424 81.8024 19.448 81.8024 18.168V12.168H84.2744V26.424C84.2744 27.144 84.0584 27.72 83.6264 28.152C83.2104 28.584 82.6344 28.8 81.8984 28.8H74.5544Z" fill="#045745"/>
<path d="M26.5362 23.352L26.3561 23.5254L26.3595 23.5288L26.5362 23.352ZM25.9122 14.256H26.1622V14.006H25.9122V14.256ZM22.6482 14.256H22.3982V14.506H22.6482V14.256ZM22.6482 12.168V11.918H22.3982V12.168H22.6482ZM25.9122 12.168V12.418H26.1622V12.168H25.9122ZM25.9122 8.256V8.006H25.6622V8.256H25.9122ZM28.3842 8.256H28.6342V8.006H28.3842V8.256ZM28.3842 12.168H28.1342V12.418H28.3842V12.168ZM31.9122 12.168H32.1622V11.918H31.9122V12.168ZM31.9122 14.256V14.506H32.1622V14.256H31.9122ZM28.3842 14.256V14.006H28.1342V14.256H28.3842ZM31.5282 21.912H31.7782V21.662H31.5282V21.912ZM31.5282 24V24.25H31.7782V24H31.5282ZM28.2642 23.75C27.5978 23.75 27.0898 23.552 26.713 23.1752L26.3595 23.5288C26.8467 24.016 27.4907 24.25 28.2642 24.25V23.75ZM26.7163 23.1786C26.3539 22.8022 26.1622 22.2931 26.1622 21.624H25.6622C25.6622 22.3949 25.8866 23.0378 26.3562 23.5254L26.7163 23.1786ZM26.1622 21.624V14.256H25.6622V21.624H26.1622ZM25.9122 14.006H22.6482V14.506H25.9122V14.006ZM22.8982 14.256V12.168H22.3982V14.256H22.8982ZM22.6482 12.418H25.9122V11.918H22.6482V12.418ZM26.1622 12.168V8.256H25.6622V12.168H26.1622ZM25.9122 8.506H28.3842V8.006H25.9122V8.506ZM28.1342 8.256V12.168H28.6342V8.256H28.1342ZM28.3842 12.418H31.9122V11.918H28.3842V12.418ZM31.6622 12.168V14.256H32.1622V12.168H31.6622ZM31.9122 14.006H28.3842V14.506H31.9122V14.006ZM28.1342 14.256V21.192H28.6342V14.256H28.1342ZM28.1342 21.192C28.1342 21.4664 28.1979 21.7188 28.3695 21.9026C28.5441 22.0896 28.7891 22.162 29.0562 22.162V21.662C28.8754 21.662 28.7844 21.6144 28.735 21.5614C28.6826 21.5052 28.6342 21.3976 28.6342 21.192H28.1342ZM29.0562 22.162H31.5282V21.662H29.0562V22.162ZM31.2782 21.912V24H31.7782V21.912H31.2782ZM31.5282 23.75H28.2642V24.25H31.5282V23.75ZM36.2324 23.616L36.3559 23.3986L36.2324 23.616ZM34.5764 21.912L34.3568 22.0314L34.5764 21.912ZM33.9764 12.168V11.918H33.7264V12.168H33.9764ZM36.4484 12.168H36.6984V11.918H36.4484V12.168ZM37.2164 21.384L37.0425 21.5636L37.0454 21.5664L37.2164 21.384ZM41.7764 21.096L41.5913 20.928L41.591 20.9283L41.7764 21.096ZM42.7124 12.168V11.918H42.4624V12.168H42.7124ZM45.1844 12.168H45.4344V11.918H45.1844V12.168ZM45.1844 24V24.25H45.4344V24H45.1844ZM42.7604 24H42.5104V24.25H42.7604V24ZM42.7604 22.224H43.0104V21.974H42.7604V22.224ZM42.3764 22.224V21.974H42.2172L42.1499 22.1183L42.3764 22.224ZM41.1764 23.592L41.3228 23.7947L41.3264 23.792L41.1764 23.592ZM38.6324 23.966C37.775 23.966 37.0184 23.775 36.3559 23.3986L36.1089 23.8334C36.8545 24.257 37.6979 24.466 38.6324 24.466V23.966ZM36.3559 23.3986C35.6939 23.0225 35.1746 22.4891 34.7961 21.7926L34.3568 22.0314C34.7782 22.8069 35.3629 23.4095 36.1089 23.8334L36.3559 23.3986ZM34.7961 21.7926C34.42 21.1006 34.2264 20.2635 34.2264 19.272H33.7264C33.7264 20.3285 33.9329 21.2514 34.3568 22.0314L34.7961 21.7926ZM34.2264 19.272V12.168H33.7264V19.272H34.2264ZM33.9764 12.418H36.4484V11.918H33.9764V12.418ZM36.1984 12.168V19.104H36.6984V12.168H36.1984ZM36.1984 19.104C36.1984 20.1658 36.464 21.0031 37.0425 21.5636L37.3904 21.2044C36.9449 20.7729 36.6984 20.0902 36.6984 19.104H36.1984ZM37.0454 21.5664C37.6164 22.1016 38.3966 22.354 39.3524 22.354V21.854C38.4843 21.854 37.8405 21.6264 37.3874 21.2016L37.0454 21.5664ZM39.3524 22.354C40.4222 22.354 41.3008 21.9943 41.9618 21.2637L41.591 20.9283C41.0361 21.5417 40.2986 21.854 39.3524 21.854V22.354ZM41.9616 21.264C42.6409 20.515 42.9624 19.4625 42.9624 18.144H42.4624C42.4624 19.3855 42.16 20.301 41.5913 20.928L41.9616 21.264ZM42.9624 18.144V12.168H42.4624V18.144H42.9624ZM42.7124 12.418H45.1844V11.918H42.7124V12.418ZM44.9344 12.168V24H45.4344V12.168H44.9344ZM45.1844 23.75H42.7604V24.25H45.1844V23.75ZM43.0104 24V22.224H42.5104V24H43.0104ZM42.7604 21.974H42.3764V22.474H42.7604V21.974ZM42.1499 22.1183C41.9484 22.5501 41.5808 22.9762 41.0264 23.392L41.3264 23.792C41.924 23.3438 42.3565 22.8579 42.603 22.3297L42.1499 22.1183ZM41.0301 23.3893C40.5149 23.7614 39.728 23.966 38.6324 23.966V24.466C39.7769 24.466 40.686 24.2546 41.3228 23.7947L41.0301 23.3893ZM48.1186 24H47.8686V24.25H48.1186V24ZM48.1186 7.2V6.95H47.8686V7.2H48.1186ZM50.5906 7.2H50.8406V6.95H50.5906V7.2ZM50.5906 16.776H50.3406V17.026H50.5906V16.776ZM50.9746 16.776V17.026H51.0774L51.1505 16.9537L50.9746 16.776ZM55.6306 12.168V11.918H55.5278L55.4548 11.9903L55.6306 12.168ZM58.9186 12.168L59.0917 12.3484L59.5401 11.918H58.9186V12.168ZM52.9426 17.904L52.7695 17.7236L52.5843 17.9014L52.7669 18.0818L52.9426 17.904ZM59.1106 24V24.25H59.7192L59.2864 23.8222L59.1106 24ZM55.8466 24L55.669 24.1759L55.7423 24.25H55.8466V24ZM50.9746 19.08L51.1523 18.9041L51.0789 18.83H50.9746V19.08ZM50.5906 19.08V18.83H50.3406V19.08H50.5906ZM50.5906 24V24.25H50.8406V24H50.5906ZM48.3686 24V7.2H47.8686V24H48.3686ZM48.1186 7.45H50.5906V6.95H48.1186V7.45ZM50.3406 7.2V16.776H50.8406V7.2H50.3406ZM50.5906 17.026H50.9746V16.526H50.5906V17.026ZM51.1505 16.9537L55.8065 12.3457L55.4548 11.9903L50.7988 16.5983L51.1505 16.9537ZM55.6306 12.418H58.9186V11.918H55.6306V12.418ZM58.7455 11.9876L52.7695 17.7236L53.1157 18.0844L59.0917 12.3484L58.7455 11.9876ZM52.7669 18.0818L58.9349 24.1778L59.2864 23.8222L53.1184 17.7262L52.7669 18.0818ZM59.1106 23.75H55.8466V24.25H59.1106V23.75ZM56.0243 23.8241L51.1523 18.9041L50.797 19.2559L55.669 24.1759L56.0243 23.8241ZM50.9746 18.83H50.5906V19.33H50.9746V18.83ZM50.3406 19.08V24H50.8406V19.08H50.3406ZM50.5906 23.75H48.1186V24.25H50.5906V23.75ZM61.7516 23.904L61.6511 24.1329L61.6531 24.1338L61.7516 23.904ZM60.1676 22.632L59.9613 22.7734L59.9641 22.7773L60.1676 22.632ZM60.1676 18.576L59.9661 18.4279L59.9654 18.429L60.1676 18.576ZM61.7756 17.352L61.6836 17.1195L61.6818 17.1203L61.7756 17.352ZM67.7036 16.944V17.194H67.9536V16.944H67.7036ZM67.0796 14.52L66.9028 14.6968L67.0796 14.52ZM62.3276 16.056L62.2507 16.2939L62.5113 16.3781L62.5715 16.1109L62.3276 16.056ZM60.0236 15.312L59.7841 15.2402L59.7137 15.4747L59.9467 15.5499L60.0236 15.312ZM60.9356 13.584L60.7421 13.4257L60.7415 13.4264L60.9356 13.584ZM68.8076 13.008L68.9739 12.8213L68.8076 13.008ZM71.8076 21.936H72.0576V21.686H71.8076V21.936ZM71.8076 24V24.25H72.0576V24H71.8076ZM68.5916 23.568L68.7499 23.3745L68.5916 23.568ZM68.0636 22.32H68.3136V22.07H68.0636V22.32ZM67.7036 22.32V22.07H67.5536L67.483 22.2024L67.7036 22.32ZM67.1276 23.16L67.3228 23.3162L67.1276 23.16ZM65.9996 24L66.1025 24.2279L66.1084 24.225L65.9996 24ZM66.7916 21.456L66.9609 21.6399L66.9635 21.6375L66.7916 21.456ZM67.7036 18.864H67.9536V18.614H67.7036V18.864ZM62.6636 19.296L62.8042 19.5028L62.8096 19.4989L62.6636 19.296ZM64.0316 24.086C63.2121 24.086 62.4863 23.9469 61.85 23.6742L61.6531 24.1338C62.3608 24.4371 63.1551 24.586 64.0316 24.586V24.086ZM61.8521 23.6751C61.2355 23.4044 60.7437 23.0085 60.371 22.4867L59.9641 22.7773C60.3914 23.3755 60.9556 23.8276 61.6511 24.1329L61.8521 23.6751ZM60.3737 22.4906C60.0231 21.9792 59.8416 21.3507 59.8416 20.592H59.3416C59.3416 21.4333 59.544 22.1648 59.9614 22.7734L60.3737 22.4906ZM59.8416 20.592C59.8416 19.8155 60.0238 19.1987 60.3697 18.723L59.9654 18.429C59.5433 19.0093 59.3416 19.7365 59.3416 20.592H59.8416ZM60.369 18.7241C60.7395 18.2202 61.237 17.8397 61.8694 17.5837L61.6818 17.1203C60.9701 17.4083 60.3956 17.8438 59.9661 18.4279L60.369 18.7241ZM61.8675 17.5845C62.5217 17.3258 63.2658 17.194 64.1036 17.194V16.694C63.2133 16.694 62.4054 16.8342 61.6836 17.1195L61.8675 17.5845ZM64.1036 17.194H67.7036V16.694H64.1036V17.194ZM67.9536 16.944V16.176H67.4536V16.944H67.9536ZM67.9536 16.176C67.9536 15.4338 67.7271 14.814 67.2563 14.3432L66.9028 14.6968C67.264 15.058 67.4536 15.5422 67.4536 16.176H67.9536ZM67.2563 14.3432C66.7753 13.8622 66.0589 13.646 65.1596 13.646V14.146C65.9882 14.146 66.5518 14.3458 66.9028 14.6968L67.2563 14.3432ZM65.1596 13.646C64.2753 13.646 63.5587 13.8545 63.0491 14.3095L63.3821 14.6825C63.7684 14.3375 64.3478 14.146 65.1596 14.146V13.646ZM63.0491 14.3095C62.5586 14.7475 62.238 15.3152 62.0837 16.0011L62.5715 16.1109C62.7051 15.5168 62.9766 15.0445 63.3821 14.6825L63.0491 14.3095ZM62.4044 15.8181L60.1004 15.0741L59.9467 15.5499L62.2507 16.2939L62.4044 15.8181ZM60.263 15.3838C60.4457 14.7747 60.7345 14.228 61.1296 13.7416L60.7415 13.4264C60.3047 13.964 59.9854 14.5693 59.7841 15.2402L60.263 15.3838ZM61.129 13.7423C61.5337 13.2478 62.0692 12.8458 62.743 12.5396L62.5361 12.0844C61.8019 12.4182 61.2014 12.8642 60.7421 13.4257L61.129 13.7423ZM62.743 12.5396C63.4067 12.2379 64.2175 12.082 65.1836 12.082V11.582C64.1656 11.582 63.2804 11.7461 62.5361 12.0844L62.743 12.5396ZM65.1836 12.082C66.6773 12.082 67.8195 12.4626 68.6413 13.1947L68.9739 12.8213C68.0356 11.9854 66.7618 11.582 65.1836 11.582V12.082ZM68.6413 13.1947C69.4564 13.9209 69.8776 14.9582 69.8776 16.344H70.3776C70.3776 14.8498 69.9187 13.6631 68.9739 12.8213L68.6413 13.1947ZM69.8776 16.344V21.216H70.3776V16.344H69.8776ZM69.8776 21.216C69.8776 21.4904 69.9412 21.7428 70.1128 21.9266C70.2874 22.1136 70.5324 22.186 70.7996 22.186V21.686C70.6187 21.686 70.5277 21.6384 70.4783 21.5854C70.4259 21.5292 70.3776 21.4216 70.3776 21.216H69.8776ZM70.7996 22.186H71.8076V21.686H70.7996V22.186ZM71.5576 21.936V24H72.0576V21.936H71.5576ZM71.8076 23.75H69.9596V24.25H71.8076V23.75ZM69.9596 23.75C69.4435 23.75 69.0476 23.6181 68.7499 23.3745L68.4332 23.7615C68.8395 24.0939 69.3556 24.25 69.9596 24.25V23.75ZM68.7499 23.3745C68.4616 23.1387 68.3136 22.8208 68.3136 22.392H67.8136C67.8136 22.9552 68.0175 23.4213 68.4332 23.7615L68.7499 23.3745ZM68.3136 22.392V22.32H67.8136V22.392H68.3136ZM68.0636 22.07H67.7036V22.57H68.0636V22.07ZM67.483 22.2024C67.3649 22.4238 67.183 22.6905 66.9323 23.0038L67.3228 23.3162C67.5841 22.9895 67.7862 22.6962 67.9241 22.4376L67.483 22.2024ZM66.9323 23.0038C66.7062 23.2865 66.3641 23.5459 65.8907 23.775L66.1084 24.225C66.627 23.9741 67.0369 23.6735 67.3228 23.3162L66.9323 23.0038ZM65.8967 23.7722C65.445 23.9761 64.8282 24.086 64.0316 24.086V24.586C64.8669 24.586 65.5621 24.4719 66.1025 24.2278L65.8967 23.7722ZM64.3916 22.546C65.433 22.546 66.2979 22.2506 66.9609 21.6399L66.6222 21.2721C66.0693 21.7814 65.3341 22.046 64.3916 22.046V22.546ZM66.9635 21.6375C67.6305 21.0056 67.9536 20.1509 67.9536 19.104H67.4536C67.4536 20.0411 67.1686 20.7544 66.6196 21.2745L66.9635 21.6375ZM67.9536 19.104V18.864H67.4536V19.104H67.9536ZM67.7036 18.614H64.2476V19.114H67.7036V18.614ZM64.2476 18.614C63.5563 18.614 62.9721 18.7658 62.5175 19.0931L62.8096 19.4989C63.155 19.2502 63.6268 19.114 64.2476 19.114V18.614ZM62.523 19.0893C62.0451 19.4142 61.8136 19.9053 61.8136 20.52H62.3136C62.3136 20.0467 62.482 19.7218 62.8041 19.5027L62.523 19.0893ZM61.8136 20.52C61.8136 21.1383 62.055 21.6448 62.5351 22.0142L62.84 21.6178C62.4881 21.3471 62.3136 20.9897 62.3136 20.52H61.8136ZM62.5351 22.0142C63.0085 22.3783 63.6366 22.546 64.3916 22.546V22.046C63.7065 22.046 63.1986 21.8937 62.84 21.6178L62.5351 22.0142ZM74.5544 28.8H74.3044V29.05H74.5544V28.8ZM74.5544 26.64V26.39H74.3044V26.64H74.5544ZM81.8264 22.272H82.0764V22.022H81.8264V22.272ZM81.4424 22.272V22.022H81.2808L81.2145 22.1694L81.4424 22.272ZM80.7704 23.208L80.9472 23.3848L80.7704 23.208ZM79.5944 23.928L79.6847 24.1611L79.5944 23.928ZM75.3224 23.616L75.4459 23.3986L75.3224 23.616ZM73.6664 21.912L73.4468 22.0314L73.6664 21.912ZM73.0664 12.168V11.918H72.8164V12.168H73.0664ZM75.5384 12.168H75.7884V11.918H75.5384V12.168ZM76.3064 21.384L76.1325 21.5636L76.1354 21.5664L76.3064 21.384ZM80.8664 21.096L80.6832 20.9259L80.681 20.9283L80.8664 21.096ZM81.8024 12.168V11.918H81.5524V12.168H81.8024ZM84.2744 12.168H84.5244V11.918H84.2744V12.168ZM83.6264 28.152L83.4496 27.9752L83.4464 27.9786L83.6264 28.152ZM74.8044 28.8V26.64H74.3044V28.8H74.8044ZM74.5544 26.89H81.1544V26.39H74.5544V26.89ZM81.1544 26.89C81.4216 26.89 81.6666 26.8176 81.8412 26.6306C82.0127 26.4468 82.0764 26.1944 82.0764 25.92H81.5764C81.5764 26.1256 81.5281 26.2332 81.4757 26.2894C81.4263 26.3424 81.3353 26.39 81.1544 26.39V26.89ZM82.0764 25.92V22.272H81.5764V25.92H82.0764ZM81.8264 22.022H81.4424V22.522H81.8264V22.022ZM81.2145 22.1694C81.0853 22.4563 80.8809 22.744 80.5937 23.0312L80.9472 23.3848C81.268 23.064 81.5115 22.7277 81.6704 22.3746L81.2145 22.1694ZM80.5937 23.0312C80.3366 23.2883 79.9772 23.5117 79.5042 23.6949L79.6847 24.1611C80.2036 23.9603 80.6283 23.7037 80.9472 23.3848L80.5937 23.0312ZM79.5042 23.6949C79.0462 23.8721 78.4553 23.966 77.7224 23.966V24.466C78.4935 24.466 79.1506 24.3679 79.6847 24.1611L79.5042 23.6949ZM77.7224 23.966C76.865 23.966 76.1084 23.775 75.4459 23.3986L75.1989 23.8334C75.9445 24.257 76.7879 24.466 77.7224 24.466V23.966ZM75.4459 23.3986C74.7839 23.0225 74.2646 22.4891 73.8861 21.7926L73.4468 22.0314C73.8682 22.8069 74.4529 23.4095 75.1989 23.8334L75.4459 23.3986ZM73.8861 21.7926C73.5097 21.1 73.3164 20.2707 73.3164 19.296H72.8164C72.8164 20.3373 73.0232 21.252 73.4468 22.0314L73.8861 21.7926ZM73.3164 19.296V12.168H72.8164V19.296H73.3164ZM73.0664 12.418H75.5384V11.918H73.0664V12.418ZM75.2884 12.168V19.104H75.7884V12.168H75.2884ZM75.2884 19.104C75.2884 20.1658 75.554 21.0031 76.1325 21.5636L76.4804 21.2044C76.0349 20.7729 75.7884 20.0902 75.7884 19.104H75.2884ZM76.1354 21.5664C76.7064 22.1016 77.4866 22.354 78.4424 22.354V21.854C77.5743 21.854 76.9305 21.6264 76.4774 21.2016L76.1354 21.5664ZM78.4424 22.354C79.5122 22.354 80.3908 21.9943 81.0518 21.2637L80.681 20.9283C80.1261 21.5417 79.3886 21.854 78.4424 21.854V22.354ZM81.0496 21.2661C81.731 20.5323 82.0524 19.486 82.0524 18.168H81.5524C81.5524 19.41 81.2498 20.3157 80.6832 20.9259L81.0496 21.2661ZM82.0524 18.168V12.168H81.5524V18.168H82.0524ZM81.8024 12.418H84.2744V11.918H81.8024V12.418ZM84.0244 12.168V26.424H84.5244V12.168H84.0244ZM84.0244 26.424C84.0244 27.0904 83.8265 27.5984 83.4497 27.9752L83.8032 28.3288C84.2904 27.8416 84.5244 27.1976 84.5244 26.424H84.0244ZM83.4464 27.9786C83.0878 28.3509 82.583 28.55 81.8984 28.55V29.05C82.6859 29.05 83.333 28.8171 83.8065 28.3254L83.4464 27.9786ZM81.8984 28.55H74.5544V29.05H81.8984V28.55Z" fill="#42772B"/>
<rect x="0.353798" y="12.1924" width="12.5" height="3.5" rx="0.75" transform="rotate(-45 0.353798 12.1924)" fill="#045745" stroke="#42772B" stroke-width="0.5"/>
<rect x="10.3538" y="12.1924" width="12.5" height="3.5" rx="0.75" transform="rotate(-45 10.3538 12.1924)" fill="#045745" stroke="#42772B" stroke-width="0.5"/>
<rect x="2.82837" y="15.354" width="12.5" height="3.5" rx="0.75" transform="rotate(45 2.82837 15.354)" fill="#045745" stroke="#42772B" stroke-width="0.5"/>
<rect x="12.8286" y="15.3536" width="12.5" height="3.5" rx="0.75" transform="rotate(45 12.8286 15.3536)" fill="#045745" stroke="#42772B" stroke-width="0.5"/>
</svg>
