<svg width="201" height="71" viewBox="0 0 201 71" fill="none" xmlns="http://www.w3.org/2000/svg">
<rect x="0.458374" y="26.8431" width="26" height="8" rx="1" transform="rotate(-45 0.458374 26.8431)" fill="white"/>
<rect x="24.5" y="26.8431" width="26" height="8" rx="1" transform="rotate(-45 24.5 26.8431)" fill="white"/>
<rect x="6.11523" y="35.5" width="26" height="8" rx="1" transform="rotate(45 6.11523 35.5)" fill="white"/>
<rect x="30.1569" y="35.5" width="26" height="8" rx="1" transform="rotate(45 30.1569 35.5)" fill="white"/>
<path d="M64.56 55C62.7307 55 61.2373 54.44 60.08 53.32C58.96 52.1627 58.4 50.632 58.4 48.728V33.048H51.456V27.224H58.4V18.6H65.456V27.224H73.072V33.048H65.456V47.496C65.456 48.616 65.9787 49.176 67.024 49.176H72.4V55H64.56ZM88.3631 55.448C86.1977 55.448 84.2937 54.9627 82.6511 53.992C81.0457 52.984 79.7951 51.6027 78.8991 49.848C78.0031 48.0933 77.5551 46.0773 77.5551 43.8V27.224H84.6111V43.24C84.6111 45.3307 85.1151 46.8987 86.1231 47.944C87.1684 48.9893 88.6431 49.512 90.5471 49.512C92.7124 49.512 94.3924 48.8027 95.5871 47.384C96.7817 45.928 97.3791 43.912 97.3791 41.336V27.224H104.435V55H97.4911V51.36H96.4831C96.0351 52.2933 95.1951 53.208 93.9631 54.104C92.7311 55 90.8644 55.448 88.3631 55.448ZM110.607 55V15.8H117.663V37.472H118.671L127.855 27.224H137.039L124.215 40.664L137.487 55H128.415L118.671 43.968H117.663V55H110.607ZM148.613 55.784C146.635 55.784 144.861 55.448 143.293 54.776C141.725 54.0667 140.475 53.0587 139.541 51.752C138.645 50.408 138.197 48.784 138.197 46.88C138.197 44.976 138.645 43.3893 139.541 42.12C140.475 40.8133 141.744 39.8427 143.349 39.208C144.992 38.536 146.859 38.2 148.949 38.2H156.565V36.632C156.565 35.3253 156.155 34.2613 155.333 33.44C154.512 32.5813 153.205 32.152 151.413 32.152C149.659 32.152 148.352 32.5627 147.493 33.384C146.635 34.168 146.075 35.1947 145.813 36.464L139.317 34.28C139.765 32.8613 140.475 31.5733 141.445 30.416C142.453 29.2213 143.779 28.2693 145.421 27.56C147.101 26.8133 149.136 26.44 151.525 26.44C155.184 26.44 158.077 27.3547 160.205 29.184C162.333 31.0133 163.397 33.664 163.397 37.136V47.496C163.397 48.616 163.92 49.176 164.965 49.176H167.205V55H162.501C161.12 55 159.981 54.664 159.085 53.992C158.189 53.32 157.741 52.424 157.741 51.304V51.248H156.677C156.528 51.696 156.192 52.2933 155.669 53.04C155.147 53.7493 154.325 54.384 153.205 54.944C152.085 55.504 150.555 55.784 148.613 55.784ZM149.845 50.072C151.824 50.072 153.429 49.5307 154.661 48.448C155.931 47.328 156.565 45.8533 156.565 44.024V43.464H149.453C148.147 43.464 147.12 43.744 146.373 44.304C145.627 44.864 145.253 45.648 145.253 46.656C145.253 47.664 145.645 48.4853 146.429 49.12C147.213 49.7547 148.352 50.072 149.845 50.072ZM172.943 66.2V60.04H188.063C189.108 60.04 189.631 59.48 189.631 58.36V51.36H188.623C188.324 51.9947 187.857 52.6293 187.223 53.264C186.588 53.8987 185.729 54.4213 184.647 54.832C183.564 55.2427 182.183 55.448 180.503 55.448C178.337 55.448 176.433 54.9627 174.791 53.992C173.185 52.984 171.935 51.6027 171.039 49.848C170.143 48.0933 169.695 46.0773 169.695 43.8V27.224H176.751V43.24C176.751 45.3307 177.255 46.8987 178.263 47.944C179.308 48.9893 180.783 49.512 182.687 49.512C184.852 49.512 186.532 48.8027 187.727 47.384C188.921 45.928 189.519 43.912 189.519 41.336V27.224H196.575V59.928C196.575 61.832 196.015 63.344 194.895 64.464C193.775 65.6213 192.281 66.2 190.415 66.2H172.943Z" fill="#C9F52E"/>
</svg>
