<svg width="728" height="567" viewBox="0 0 728 567" fill="none" xmlns="http://www.w3.org/2000/svg">
<path d="M73 2L35 42C26.3333 50.6667 14.2 73.6 35 96C55.8 118.4 69 133.333 73 138C79 146.667 87.4 169.6 73 192C58.6 214.4 20.3333 249.333 3 264L305 564L407 474L103 170L265 2" stroke="#208950" stroke-width="4"/>
<path d="M391 2L353 42C344.333 50.6667 332.2 73.6 353 96C373.8 118.4 387 133.333 391 138C397 146.667 405.4 169.6 391 192C376.6 214.4 338.333 249.333 321 264L623 564L725 474L421 170L583 2" stroke="#208950" stroke-width="4"/>
</svg>
